<svg xmlns="http://www.w3.org/2000/svg" version="1.1" viewBox="10 14 100 92">
  <path d="M110,75.6c-4.7-1.7-25.8-2.4-36,1.7c3.4-2,20.1-15.9,27.5-38.3C97.2,41,75.4,53,67.8,67.8c0,0,6.9-23-7.9-53.5 C45,44.7,52,67.8,52,67.8C44.4,53,22.6,41,18.3,39C25.8,61.4,42.4,75.3,46,77.4c-10-4.3-31.1-3.4-36-1.7 C20.6,83.9,41,88,45.9,87.8c-5.3,1.7-19.7,8.3-20.8,11.8c16.8,1.1,29.4-6.7,33.6-9.8v14.5c0,0.7,0.7,1.4,1.4,1.4s1.4-0.6,1.4-1.4 V89.8c4,3,16.8,10.9,33.6,9.8c-1.1-3.4-15.5-10-20.9-11.9C78.9,87.9,99.4,83.7,110,75.6z"/>
</svg>
