<svg xmlns="http://www.w3.org/2000/svg" version="1.1" viewBox="8 18 84 66">
  <path d="m11.477 57.109c-2.4844-2.4102-2.2383-4.8242-1.8711-6.0508 0.61328-2.043 2.4453-3.7383 4.4531-4.1211 0.70703-0.13281 1.3906 0.33203 1.5234 1.0391 0.13281 0.70703-0.33203 1.3906-1.0391 1.5234-0.89844 0.17188-2.0625 1.0352-2.4414 2.3047-0.34766 1.1523 0.066407 2.3359 1.1875 3.4258 3.9805 3.8633 3.6758 10.547 3.6602 10.828-0.035157 0.69531-0.61328 1.2344-1.3008 1.2344-0.023438 0-0.046876 0-0.070313-0.003907-0.71875-0.039062-1.2695-0.65234-1.2344-1.3711 0.003906-0.078125 0.24609-5.7969-2.8711-8.8203zm57.359 3.4688-2.4414-6.4336-44.812 17.02 2.4414 6.4336 44.809-17.016zm-47.25 17.945-2.4414-6.4336-3.0664 1.1641c-0.28906 0.10938-0.51562 0.32422-0.64453 0.60547-0.125 0.28125-0.13672 0.59375-0.027344 0.88281l1.6211 4.2734c0.22656 0.59375 0.89453 0.89453 1.4883 0.66797l3.0664-1.1641zm68.965-27.426-1.6211-4.2734c-0.17578-0.46094-0.61328-0.74609-1.082-0.74609-0.13672 0-0.27344 0.023437-0.41016 0.074219l-18.605 7.0664 2.4414 6.4336 18.605-7.0664c0.59375-0.22656 0.89453-0.89453 0.66797-1.4883zm-69.875-4.0078c-0.26953 2.3672-1.6016 4.5039-3.4688 5.5664-0.625 0.35547-0.84375 1.1523-0.48438 1.7773 0.23828 0.42188 0.67969 0.65625 1.1328 0.65625 0.21875 0 0.44141-0.054688 0.64453-0.17188 2.6172-1.4922 4.3984-4.3086 4.7695-7.5391 0.47656-4.1445-1.4102-8.4141-5.3047-12.02-1.8398-1.707-2.7969-3.6016-2.8438-5.6406-0.085938-3.918 3.1562-7.2344 3.1875-7.2656 0.50781-0.50781 0.50781-1.3359 0-1.8438-0.50781-0.50781-1.3359-0.50781-1.8438 0-0.16406 0.16406-4.0508 4.1094-3.9531 9.1445 0.054687 2.7812 1.293 5.3086 3.6797 7.5195 3.2695 3.0273 4.8633 6.5117 4.4844 9.8086z"/>
</svg>
